#!OML:ASF F:\VICON\USERDATA\INSTALL\rory3\rory3.ASF
:FULLY-SPECIFIED
:DEGREES
149
root 0.419158 17.8752 45.9766 0.0707856 -7.64285 -2.24191
lowerback 15.7937 -2.18069 1.01485
upperback 0.405935 -2.65235 0.651174
thorax -8.44968 -1.30542 0.727987
lowerneck -4.00827 3.1027 -3.01364
upperneck -4.9599 4.26433 1.19758
head -0.954381 2.17138 0.877381
rclavicle -3.3048e-015 -3.97569e-015
rhumerus -58.725 7.19188 -83.5865
rradius 75.2221
rwrist 2.65816
rhand -40.4155 32.8668
rfingers 7.12502
rthumb -13.3683 3.31567
lclavicle -3.3048e-015 -3.97569e-015
lhumerus -35.0607 -23.6492 94.9371
lradius 116.138
lwrist 27.161
lhand -37.876 5.0896
lfingers 7.12502
lthumb -10.9197 34.7857
rfemur -23.0434 5.03126 26.3094
rtibia 22.1469
rfoot 6.6705 4.71053
rtoes 12.1881
lfemur 10.484 7.57821 -19.7263
ltibia 79.0214
lfoot 35.5398 5.14734
ltoes -6.96835
150
root 0.444228 17.726 46.5529 -0.8267 -6.95748 -1.45777
lowerback 14.7327 -2.32259 1.19056
upperback 1.57083 -2.87493 0.141293
thorax -6.6401 -1.43343 0.0575364
lowerneck -4.85524 3.03599 -2.87895
upperneck -5.12088 4.19565 1.22278
head -0.860211 2.13785 0.874954
rclavicle -2.06985e-014 -8.15017e-015
rhumerus -56.1815 7.20728 -83.5216
rradius 76.0106
rwrist 2.48733
rhand -40.4851 32.0595
rfingers 7.12502
rthumb -13.4354 2.51276
lclavicle -2.06985e-014 -8.15017e-015
lhumerus -34.8394 -23.3773 94.5678
lradius 114.328
lwrist 28.0113
lhand -38.0666 4.93048
lfingers 7.12502
lthumb -11.1035 34.6167
rfemur -21.985 3.26146 25.6203
rtibia 26.1726
rfoot 1.35965 4.75555
rtoes 14.0547
lfemur 9.45956 7.78262 -19.9223
ltibia 83.8394
lfoot 35.1723 5.78793
ltoes -6.79991
151
root 0.429319 17.5529 47.0152 -1.01541 -7.41682 -1.55013
lowerback 15.4954 -1.9676 0.958745
upperback 1.37992 -2.41887 0.314931
thorax -7.24387 -1.20076 0.311392
lowerneck -4.47738 2.83575 -2.84994
upperneck -4.95734 3.91415 1.12187
head -0.862405 1.99551 0.832945
rclavicle 2.48729e-014 -1.17283e-014
rhumerus -54.8695 7.77744 -83.3374
rradius 76.375
rwrist 1.96588
rhand -40.5816 31.9845
rfingers 7.12502
rthumb -13.5284 2.44398
lclavicle 2.48729e-014 -1.17283e-014
lhumerus -36.46 -22.6272 95.3235
lradius 112.81
lwrist 28.489
lhand -38.3347 5.99399
lfingers 7.12502
lthumb -11.3621 35.6662
rfemur -22.0003 4.97205 25.788
rtibia 30.2754
rfoot -2.80568 2.87188
rtoes 15.5901
lfemur 6.68221 9.29169 -18.2942
ltibia 89.4095
lfoot 34.7699 5.17087
ltoes -8.8527
152
root 0.438125 17.4528 47.5092 -1.57292 -7.03233 -1.5358
lowerback 16.2858 -2.00392 1.24974
upperback 1.59165 -2.4098 0.241337
thorax -7.46896 -1.20443 0.0898596
lowerneck -4.42295 2.93621 -2.27639
upperneck -4.99877 4.00472 0.403735
head -0.856189 2.03547 0.514559
rclavicle 2.81032e-014 1.28216e-014
rhumerus -52.9493 8.1556 -83.367
rradius 76.7418
rwrist 1.81083
rhand -41.2668 32.3844
rfingers 7.12502
rthumb -14.1887 2.88901
lclavicle 2.81032e-014 1.28216e-014
lhumerus -37.6395 -21.8508 95.6869
lradius 111.505
lwrist 28.7992
lhand -38.6713 6.37301
lfingers 7.12502
lthumb -11.6867 36.027
rfemur -22.0789 4.55217 26.1627
rtibia 34.5644
rfoot -5.86035 1.32895
rtoes 10.1136
lfemur 4.66515 9.76268 -17.2622
ltibia 94.0842
lfoot 35.0809 4.97238
ltoes -7.9336
153
root 0.4075 17.321 47.9832 -1.83049 -7.48358 -1.99438
lowerback 18.1485 -1.69062 1.017
upperback 0.72138 -1.96372 0.675157
thorax -9.42281 -0.966734 0.663457
lowerneck -3.12761 2.95666 -2.34398
upperneck -4.88448 3.99715 0.186808
head -1.03097 2.03326 0.440237
rclavicle 2.30466e-014 2.98177e-015
rhumerus -52.7515 9.11899 -83.3634
rradius 77.6212
rwrist 1.47632
rhand -42.547 33.3383
rfingers 7.12502
rthumb -15.4221 3.93357
lclavicle 2.30466e-014 2.98177e-015
lhumerus -40.6906 -20.4502 97.0216
lradius 110.399
lwrist 28.7245
lhand -38.8463 6.13807
lfingers 7.12502
lthumb -11.8555 35.7825
rfemur -21.9393 5.71318 27.1756
rtibia 37.9794
rfoot -7.55774 -2.66536
rtoes 4.75219
lfemur 2.39238 11.0978 -15.1077
ltibia 98.9211
lfoot 35.9591 3.80143
ltoes -3.7031
154
root 0.375618 17.1715 48.431 -1.5725 -8.11268 -4.3162
lowerback 17.4564 -1.41197 2.97054
upperback 1.64558 -1.18336 1.35579
thorax -8.05316 -0.650707 0.0564822
lowerneck -3.53125 2.79763 -2.29768
upperneck -6.01358 3.7781 -0.0775707
head -1.30698 1.93339 0.349096
rclavicle -1.43125e-014 -1.2921e-014
rhumerus -49.3108 9.00442 -82.9541
rradius 78.1026
rwrist 1.14283
rhand -43.0246 33.881
rfingers 7.12502
rthumb -15.882 4.51227
lclavicle -1.43125e-014 -1.2921e-014
lhumerus -40.3584 -20.067 96.8851
lradius 109.004
lwrist 28.8547
lhand -38.2125 7.45934
lfingers 7.12502
lthumb -11.2443 37.138
rfemur -21.571 6.8191 30.1239
rtibia 40.5975
rfoot -10.2683 -2.98644
rtoes 6.3557
lfemur -0.470769 12.5094 -10.536
ltibia 103.808
lfoot 37.4526 1.09686
ltoes -6.29721
155
root 0.395379 17.0561 48.8584 -1.16672 -7.64173 -7.37748
lowerback 18.5142 -1.88746 6.11996
upperback 1.49893 -1.02861 2.24298
thorax -8.83795 -0.684303 -0.774405
lowerneck -3.42981 2.92698 -1.91161
upperneck -6.56711 3.91034 -0.658446
head -1.47876 2.00261 0.100212
rclavicle 9.39879e-015 -2.60408e-014
rhumerus -47.2319 9.53377 -82.71
rradius 78.6256
rwrist 1.03434
rhand -42.3283 33.7233
rfingers 7.12502
rthumb -15.2114 4.30249
lclavicle 9.39879e-015 -2.60408e-014
lhumerus -41.7691 -18.8607 97.2622
lradius 107.963
lwrist 28.7741
lhand -37.5321 9.30353
lfingers 7.12502
lthumb -10.588 39.0168
rfemur -20.7617 6.21442 33.4416
rtibia 42.3472
rfoot -12.2696 -4.5973
rtoes 4.99039
lfemur -3.91339 12.9437 -5.53765
ltibia 108.378
lfoot 38.5571 -1.36971
ltoes -6.41878
156
root 0.40486 17.0086 49.3394 -0.497018 -7.13459 -8.56649
lowerback 17.6737 -2.05567 7.39252
upperback 1.82252 -1.05887 2.63523
thorax -8.03758 -0.713453 -1.08568
lowerneck -3.6011 2.93911 -1.88783
upperneck -7.65772 3.91316 -0.772514
head -1.79566 2.01302 0.0528625
rclavicle 2.73655e-014 2.91716e-014
rhumerus -44.2779 9.86394 -82.3379
rradius 78.8984
rwrist 1.01322
rhand -41.6034 34.1101
rfingers 7.12502
rthumb -14.513 4.63766
lclavicle 2.73655e-014 2.91716e-014
lhumerus -42.426 -17.7349 97.3632
lradius 106.984
lwrist 28.6339
lhand -37.18 10.222
lfingers 7.12502
lthumb -10.2483 39.9524
rfemur -20.0818 5.32136 34.5121
rtibia 43.3424
rfoot -14.1721 -4.85842
rtoes 2.65527
lfemur -7.66851 13.3685 -3.49775
ltibia 111.805
lfoot 39.4407 -3.57169
ltoes -11.0489
157
root 0.410337 16.9667 49.7838 -0.452141 -6.12131 -8.20705
lowerback 17.7741 -2.23071 7.34839
upperback 2.01547 -1.31297 2.45717
thorax -7.90338 -0.828994 -1.19286
lowerneck -3.7408 2.82582 -1.78764
upperneck -8.42241 3.76237 -0.663452
head -2.0188 1.9383 0.0656575
rclavicle 8.97016e-015 -5.8393e-015
rhumerus -41.4685 9.95327 -82.1322
rradius 78.9339
rwrist 1.34776
rhand -41.9029 34.7121
rfingers 7.12502
rthumb -14.8016 5.26069
lclavicle 8.97016e-015 -5.8393e-015
lhumerus -43.4102 -16.9232 97.3971
lradius 106.228
lwrist 28.6322
lhand -37.3251 10.9578
lfingers 7.12502
lthumb -10.3882 40.6811
rfemur -19.0393 3.88095 33.895
rtibia 43.8664
rfoot -15.4871 -4.22798
rtoes 0.122257
lfemur -11.6677 13.205 -3.76695
ltibia 114.813
lfoot 39.8956 -4.6544
ltoes -9.93795
158
root 0.408241 16.9442 50.2216 -0.642091 -5.30745 -8.08132
lowerback 17.3934 -2.298 7.34528
upperback 2.87174 -1.50192 2.34798
thorax -6.77889 -0.876296 -1.29602
lowerneck -4.46397 2.64201 -1.60027
upperneck -9.27336 3.51877 -0.673183
head -2.16617 1.81567 0.0359404
rclavicle -9.20621e-015 -2.3556e-014
rhumerus -37.7187 10.003 -81.8092
rradius 78.9267
rwrist 1.89065
rhand -42.9037 34.8268
rfingers 7.12502
rthumb -15.7656 5.44884
lclavicle -9.20621e-015 -2.3556e-014
lhumerus -43.232 -16.479 96.9761
lradius 105.447
lwrist 29.2693
lhand -37.1805 10.8634
lfingers 7.12502
lthumb -10.2488 40.5938
rfemur -17.5132 3.23245 33.6448
rtibia 44.2034
rfoot -16.3736 -4.39965
rtoes -1.16222
lfemur -15.4337 13.1826 -3.72374
ltibia 117.272
lfoot 39.5153 -5.1444
ltoes 15.5456
159
root 0.362632 16.9059 50.6767 -0.774682 -5.47323 -9.58613
lowerback 19.0571 -2.187 7.79663
upperback 2.22928 -0.996075 3.01834
thorax -8.34588 -0.68863 -0.886849
lowerneck -3.63973 2.62805 -1.49803
upperneck -9.26329 3.47612 -0.796066
head -2.30204 1.79519 -0.0315842
rclavicle -1.16786e-014 -5.48149e-014
rhumerus -36.8066 10.6976 -81.6888
rradius 79.3783
rwrist 2.10207
rhand -43.2257 35.4146
rfingers 7.12502
rthumb -16.0757 6.0614
lclavicle -1.16786e-014 -5.48149e-014
lhumerus -45.6884 -15.4489 97.4956
lradius 105.114
lwrist 30.2185
lhand -37.1088 11.6705
lfingers 7.12502
lthumb -10.1796 41.4042
rfemur -15.7342 4.07838 35.5076
rtibia 44.5834
rfoot -16.9084 -5.47098
rtoes -1.80746
lfemur -18.6401 14.8546 -0.166715
ltibia 119.697
lfoot 39.0535 -6.96605
ltoes 18.6681
160
root 0.397886 16.9157 51.1846 -0.504702 -3.84962 -8.67643
lowerback 18.2698 -2.46691 7.75289
upperback 2.14656 -1.48044 2.64425
thorax -8.05028 -0.917966 -1.16374
lowerneck -3.42915 2.3777 -1.52631
upperneck -9.57993 3.15223 -0.565322
head -2.44765 1.63176 0.0432982
rclavicle 7.76503e-015 3.46879e-014
rhumerus -35.1119 10.4023 -81.4703
rradius 79.9396
rwrist 2.4884
rhand -43.2448 36.1353
rfingers 7.12502
rthumb -16.0941 6.78361
lclavicle 7.76503e-015 3.46879e-014
lhumerus -47.065 -15.18 97.7624
lradius 105.011
lwrist 31.3126
lhand -37.0577 12.3167
lfingers 7.12502
lthumb -10.1303 42.0528
rfemur -14.2939 2.14927 34.1146
rtibia 44.8337
rfoot -18.2149 -5.30946
rtoes -4.21541
lfemur -22.7073 12.5407 -3.71394
ltibia 120.777
lfoot 38.2136 -5.23792
ltoes -10.2421
161
root 0.372765 16.9205 51.5868 -0.236326 -4.17242 -7.58292
lowerback 18.4479 -1.77735 5.74754
upperback 2.31379 -0.97546 2.5792
thorax -7.89171 -0.608841 -0.235576
lowerneck -3.92789 2.08275 -1.53126
upperneck -9.75853 2.77137 -0.47495
head -2.41814 1.44068 0.0816408
rclavicle -1.87836e-014 3.25758e-014
rhumerus -32.8514 10.144 -81.0275
rradius 80.7836
rwrist 3.09676
rhand -43.5891 36.8358
rfingers 7.12502
rthumb -16.4256 7.51121
lclavicle -1.87836e-014 3.25758e-014
lhumerus -47.6475 -14.9286 97.9366
lradius 105.123
lwrist 32.2734
lhand -37.3104 12.2865
lfingers 7.12502
lthumb -10.3741 42.0105
rfemur -13.3828 2.72393 33.0847
rtibia 45.0079
rfoot -18.0879 -5.88917
rtoes -7.11316
lfemur -27.2162 13.7207 -5.19704
ltibia 122.058
lfoot 38.0729 -4.95576
ltoes -10.7046
162
root 0.391995 16.9597 52.0618 0.348085 -3.61358 -7.23862
lowerback 18.4032 -1.58041 5.83681
upperback 1.7613 -0.687094 2.38136
thorax -8.46198 -0.494132 -0.561959
lowerneck -3.79428 1.74245 -1.51121
upperneck -9.3808 2.32903 -0.300254
head -2.31553 1.21432 0.138727
rclavicle 1.08485e-014 -2.56184e-014
rhumerus -32.2333 9.65794 -80.7711
rradius 81.9602
rwrist 3.43209
rhand -44.0424 37.7159
rfingers 7.12502
rthumb -16.862 8.42801
lclavicle 1.08485e-014 -2.56184e-014
lhumerus -49.4632 -15.1069 98.4164
lradius 105.351
lwrist 33.0449
lhand -37.6253 12.4299
lfingers 7.12502
lthumb -10.6778 42.1386
rfemur -12.0991 1.76299 32.4712
rtibia 44.8536
rfoot -18.4316 -5.4074
rtoes -9.27559
lfemur -31.1627 12.8051 -7.18862
ltibia 122.315
lfoot 36.8298 -4.00592
ltoes -12.2288
